<?xml version="1.0" encoding="iso-8859-1"?>
<!-- Generator: Adobe Illustrator 21.0.0, SVG Export Plug-In . SVG Version: 6.00 Build 0)  -->
<svg xmlns="http://www.w3.org/2000/svg" xmlns:xlink="http://www.w3.org/1999/xlink" version="1.1" id="Capa_1" x="0px" y="0px" viewBox="0 0 512 512" style="enable-background:new 0 0 512 512;" xml:space="preserve" width="512" height="512">
<g>
	<path d="M458.814,53.229C424.49,18.904,378.852,0,330.31,0c-48.543,0-94.181,18.904-128.505,53.229L4.436,250.597   c-5.858,5.858-5.858,15.355,0,21.213c2.929,2.929,6.768,4.394,10.606,4.394s7.678-1.464,10.606-4.394l126.714-126.714   c-5.09,24.918-4.929,50.705,0.484,75.568l-52.405,52.405c-5.858,5.858-5.858,15.355,0,21.213c2.929,2.929,6.768,4.394,10.606,4.394   s7.678-1.464,10.606-4.394l41.418-41.418c6.983,16.474,16.502,32.119,28.56,46.333L5.02,485.81c-5.858,5.858-5.858,15.355,0,21.213   c2.929,2.929,6.768,4.394,10.606,4.394s7.678-1.464,10.606-4.394l186.608-186.607c13.731,11.67,28.933,21.116,45.161,28.154   l-7.555,7.555c-5.858,5.858-5.858,15.355,0,21.213c2.929,2.929,6.768,4.394,10.606,4.394c3.838,0,7.678-1.465,10.606-4.393   l18.333-18.333c13.079,2.948,26.582,4.462,40.317,4.462c12.401,0,24.612-1.234,36.493-3.644l-126.57,126.57   c-5.858,5.858-5.858,15.355,0,21.213c2.929,2.929,6.768,4.394,10.606,4.394s7.678-1.464,10.606-4.394l197.368-197.369   C529.672,239.38,529.672,124.086,458.814,53.229z M330.31,333.467c-13.601,0-26.929-1.778-39.719-5.223   c-0.735-0.268-1.488-0.476-2.25-0.625c-24.446-6.994-46.847-20.118-65.323-38.594c-59.16-59.161-59.16-155.422,0-214.583   C251.678,45.783,289.78,30,330.31,30c40.528,0,78.632,15.783,107.291,44.441c59.16,59.161,59.16,155.423,0,214.583   C408.942,317.684,370.839,333.467,330.31,333.467z"/>
	<path d="M423.312,88.731c-24.842-24.842-57.87-38.523-93.002-38.523c-35.133,0-68.161,13.681-93.003,38.523   c-51.281,51.281-51.281,134.723,0,186.004c25.641,25.641,59.321,38.461,93.003,38.461c33.681,0,67.361-12.82,93.002-38.461   C474.594,223.454,474.594,140.013,423.312,88.731z M402.099,253.522c-39.587,39.586-103.994,39.584-143.579,0   c-39.584-39.584-39.584-103.994,0-143.578c19.176-19.176,44.671-29.736,71.79-29.736c27.118,0,52.613,10.561,71.789,29.736   C441.683,149.529,441.683,213.938,402.099,253.522z"/>
	<path d="M69.001,346.937l21.296-21.296c5.858-5.858,5.858-15.355,0-21.213c-5.857-5.858-15.355-5.858-21.213,0l-21.296,21.296   c-5.858,5.858-5.858,15.355,0,21.213c2.929,2.929,6.768,4.394,10.606,4.394S66.072,349.866,69.001,346.937z"/>
	<path d="M241.108,386.677c-5.857-5.858-15.355-5.858-21.213,0l-78.49,78.49c-5.858,5.858-5.858,15.355,0,21.213   c2.929,2.929,6.768,4.394,10.606,4.394s7.678-1.464,10.606-4.394l78.49-78.49C246.967,402.032,246.967,392.535,241.108,386.677z"/>
	<path d="M330.309,96.979c-8.284,0-15,6.716-15,15v16.734c0,8.284,6.716,15,15,15s15-6.716,15-15v-16.734   C345.309,103.694,338.594,96.979,330.309,96.979z"/>
	<path d="M330.309,219.88c-8.284,0-15,6.716-15,15v16.734c0,8.284,6.716,15,15,15s15-6.716,15-15V234.88   C345.309,226.596,338.594,219.88,330.309,219.88z"/>
	<path d="M400.128,166.729h-16.734c-8.284,0-15,6.716-15,15s6.716,15,15,15h16.734c8.284,0,15-6.716,15-15   S408.412,166.729,400.128,166.729z"/>
	<path d="M292.226,181.729c0-8.284-6.716-15-15-15h-16.734c-8.284,0-15,6.716-15,15s6.716,15,15,15h16.734   C285.511,196.729,292.226,190.013,292.226,181.729z"/>
	<path d="M291.571,121.845c-5.857-5.858-15.355-5.858-21.213,0c-5.858,5.858-5.858,15.355,0,21.213l11.833,11.833   c2.929,2.929,6.768,4.394,10.606,4.394s7.678-1.464,10.606-4.394c5.858-5.858,5.858-15.355,0-21.213L291.571,121.845z"/>
	<path d="M378.476,208.75c-5.857-5.858-15.355-5.858-21.213,0c-5.858,5.858-5.858,15.355,0,21.213l11.833,11.833   c2.929,2.929,6.768,4.394,10.606,4.394s7.678-1.464,10.606-4.394c5.858-5.858,5.858-15.355,0-21.213L378.476,208.75z"/>
	<path d="M367.822,159.237c3.839,0,7.678-1.464,10.606-4.394l11.833-11.833c5.858-5.858,5.858-15.355,0-21.213   c-5.857-5.858-15.355-5.858-21.213,0l-11.833,11.833c-5.858,5.858-5.858,15.355,0,21.213   C360.144,157.772,363.983,159.237,367.822,159.237z"/>
	<path d="M282.143,208.702l-11.833,11.833c-5.858,5.858-5.858,15.355,0,21.213c2.929,2.929,6.768,4.394,10.606,4.394   s7.678-1.464,10.606-4.394l11.833-11.833c5.858-5.858,5.858-15.355,0-21.213C297.499,202.844,288.001,202.844,282.143,208.702z"/>
</g>















</svg>
